<svg width="24" height="24" viewBox="0 0 24 24" fill="none" xmlns="http://www.w3.org/2000/svg">
<path d="M24 3.13974C24 1.40568 22.5943 0 20.8603 0H3.13974C1.40568 0 0 1.40568 0 3.13974V20.8601C0 22.5943 1.40568 24 3.13974 24H20.8601C22.5943 24 24 22.5943 24 20.8603V3.13974ZM5.38723 19.5977C4.86723 19.7372 4.39135 19.2613 4.53084 18.7413L5.39316 15.5271L8.60129 18.7352L5.38723 19.5977ZM19.2421 7.90877L9.74735 17.4036L6.55394 14.2102L16.0486 4.71548C16.499 4.26516 17.2289 4.26516 17.6792 4.71548L19.2421 6.27832C19.6923 6.72852 19.6923 7.45845 19.2421 7.90877Z" fill="#C774EE"/>
</svg>
