<svg width="49" height="40" viewBox="0 0 49 40" fill="none" xmlns="http://www.w3.org/2000/svg">
<g filter="url(#filter0_d)">
<path d="M37.462 14.2357C37.462 14.2357 38.0029 16.8929 38.124 17.45H35.7465C35.9814 16.8143 36.8854 14.3429 36.8854 14.3429C36.8712 14.3643 37.1203 13.6929 37.2627 13.2786L37.462 14.2357ZM45 3.42857V28.5714C45 30.4643 43.4696 32 41.5833 32H7.41667C5.53038 32 4 30.4643 4 28.5714V3.42857C4 1.53571 5.53038 0 7.41667 0H41.5833C43.4696 0 45 1.53571 45 3.42857ZM14.855 21.3714L19.3536 10.2857H16.3285L13.5311 17.8571L13.225 16.3214L12.2285 11.2214C12.0648 10.5143 11.5594 10.3143 10.933 10.2857H6.3276L6.27778 10.5071C7.40243 10.7929 8.40608 11.2071 9.2816 11.7286L11.8299 21.3714H14.855ZM21.5745 21.3857L23.3682 10.2857H20.5068L18.7201 21.3857H21.5745V21.3857ZM31.5326 17.7571C31.5469 16.4929 30.7781 15.5286 29.1339 14.7357C28.1302 14.2286 27.5181 13.8857 27.5181 13.3643C27.5323 12.8929 28.0377 12.4071 29.1623 12.4071C30.0948 12.3857 30.7781 12.6071 31.2906 12.8286L31.5469 12.95L31.9384 10.55C31.376 10.3286 30.4792 10.0786 29.3759 10.0786C26.55 10.0786 24.5641 11.5929 24.5498 13.75C24.5285 15.3429 25.9734 16.2286 27.0554 16.7643C28.1587 17.3071 28.5359 17.6643 28.5359 18.1429C28.5217 18.8857 27.6391 19.2286 26.8205 19.2286C25.6816 19.2286 25.0694 19.05 24.137 18.6357L23.7597 18.4571L23.3611 20.95C24.0302 21.2571 25.2687 21.5286 26.55 21.5429C29.5538 21.55 31.5113 20.0571 31.5326 17.7571ZM41.5833 21.3857L39.2771 10.2857H37.0634C36.38 10.2857 35.8604 10.4857 35.5686 11.2071L31.3191 21.3857H34.3229C34.3229 21.3857 34.8141 20.0143 34.9208 19.7214H38.5937C38.6792 20.1143 38.9354 21.3857 38.9354 21.3857H41.5833Z" fill="#7E8183"/>
</g>
<defs>
<filter id="filter0_d" x="0" y="0" width="49" height="40" filterUnits="userSpaceOnUse" color-interpolation-filters="sRGB">
<feFlood flood-opacity="0" result="BackgroundImageFix"/>
<feColorMatrix in="SourceAlpha" type="matrix" values="0 0 0 0 0 0 0 0 0 0 0 0 0 0 0 0 0 0 127 0"/>
<feOffset dy="4"/>
<feGaussianBlur stdDeviation="2"/>
<feColorMatrix type="matrix" values="0 0 0 0 0 0 0 0 0 0 0 0 0 0 0 0 0 0 0.25 0"/>
<feBlend mode="normal" in2="BackgroundImageFix" result="effect1_dropShadow"/>
<feBlend mode="normal" in="SourceGraphic" in2="effect1_dropShadow" result="shape"/>
</filter>
</defs>
</svg>
