<svg width="28" height="20" viewBox="0 0 28 20" fill="none" xmlns="http://www.w3.org/2000/svg">
<path d="M11.1125 6.31116L18.6813 10.2889L11.1125 14.3V6.31116Z" fill="white"/>
<path opacity="0.12" d="M11.1125 14.3L17.7516 9.80004L18.6813 10.2889L11.1125 14.3Z" fill="#420000"/>
<path d="M27.7048 15.6889C27.7048 15.6889 27.4315 17.6444 26.5896 18.5111C25.5291 19.6444 24.3374 19.6444 23.7798 19.7111C19.8767 20 14.0055 20 14.0055 20H13.9945C13.9945 20 8.12339 20 4.19836 19.7111C3.6517 19.6444 2.45995 19.6444 1.38852 18.5111C0.557594 17.6444 0.284266 15.6889 0.284266 15.6889C0.284266 15.6889 0 13.3778 0 11.0778V8.92222C0 6.62222 0.284266 4.32222 0.284266 4.32222C0.284266 4.32222 0.557594 2.36667 1.39945 1.5C2.45995 0.366667 3.85941 0.4 4.48263 0.288889C6.72394 0.0666676 13.9945 0 13.9945 0C13.9945 0 19.8766 0.0111103 23.7907 0.299999C24.3374 0.366667 25.5291 0.366667 26.6005 1.5C27.4424 2.36667 27.7157 4.32222 27.7157 4.32222C27.7157 4.32222 28 6.62222 28 8.92222V11.0778C27.9891 13.3778 27.7048 15.6889 27.7048 15.6889ZM11.1082 6.31111V14.3L18.6739 10.2889L11.1081 6.31111H11.1082Z" fill="url(#paint0_linear)"/>
<defs>
<linearGradient id="paint0_linear" x1="13.9944" y1="20" x2="13.9944" y2="-0.00600041" gradientUnits="userSpaceOnUse">
<stop stop-color="#E52D27"/>
<stop offset="1" stop-color="#BF171D"/>
</linearGradient>
</defs>
</svg>
