<?xml version="1.0" encoding="UTF-8"?><!DOCTYPE svg PUBLIC "-//W3C//DTD SVG 1.1//EN" "http://www.w3.org/Graphics/SVG/1.1/DTD/svg11.dtd"><svg xmlns="http://www.w3.org/2000/svg" xmlns:xlink="http://www.w3.org/1999/xlink"><symbol id="icon-arrow-left" viewBox="0 0 29 19">
    <path d="M26.691 7.763H5.645l4.624-4.624c.638-.638.638-1.594 0-2.232-.638-.638-1.594-.638-2.232 0L.703 8.24c-.638.638-.638 1.594 0 2.232l7.334 7.334c.638.638 1.594.638 2.232 0 .638-.637.638-1.594 0-2.232l-4.624-4.623h21.046c.797 0 1.595-.638 1.595-1.595 0-.956-.798-1.594-1.595-1.594z"/>
</symbol><symbol id="icon-arrow-right" viewBox="0 0 15 9">
    <path d="M1.375 5.304h10.607l-2.33 2.33a.777.777 0 000 1.125.777.777 0 001.125 0l3.696-3.696a.777.777 0 000-1.125L10.777.24a.777.777 0 00-1.125 0 .777.777 0 000 1.125l2.33 2.33H1.375a.805.805 0 00-.804.804c0 .482.402.804.804.804z"/>
</symbol><symbol id="icon-calendar" viewBox="0 0 14 14">
    <path d="M11.083 2.333H9.917V1.75a.583.583 0 00-1.167 0v.583h-3.5V1.75a.583.583 0 00-1.167 0v.583H2.917a1.75 1.75 0 00-1.75 1.75v7a1.75 1.75 0 001.75 1.75h8.166a1.75 1.75 0 001.75-1.75v-7a1.75 1.75 0 00-1.75-1.75zm.584 8.75a.583.583 0 01-.584.584H2.917a.583.583 0 01-.584-.584V7h9.334v4.083zm0-5.25H2.333v-1.75a.583.583 0 01.584-.583h1.166v.583a.583.583 0 001.167 0V3.5h3.5v.583a.583.583 0 001.167 0V3.5h1.166a.583.583 0 01.584.583v1.75z"/>
</symbol><symbol id="icon-card-icon" viewBox="0 0 24 24">
    <path d="M24 3.14A3.14 3.14 0 0020.86 0H3.14A3.14 3.14 0 000 3.14v17.72A3.14 3.14 0 003.14 24h17.72A3.14 3.14 0 0024 20.86V3.14zM5.387 19.598a.7.7 0 01-.856-.857l.862-3.214 3.208 3.208-3.214.863zm13.855-11.69l-9.495 9.496-3.193-3.194 9.495-9.495c.45-.45 1.18-.45 1.63 0l1.563 1.563c.45.45.45 1.18 0 1.63z"/>
</symbol><symbol id="icon-chat" viewBox="0 0 20 17">
    <path d="M19.677 16.634c-.979-1.168-.742-2.757-.51-3.615a4.47 4.47 0 00.343-1.701c0-1.064-.379-2.054-1.026-2.883-.63 3.87-4.515 6.867-9.237 6.94 1.085.755 2.476 1.21 3.994 1.21a7.17 7.17 0 003.05-.67c1.386.92 3.112 1.045 3.112 1.045.746 0 .274-.326.274-.326z"/>
    <path d="M17.773 7.334c0-3.998-3.904-7.251-8.702-7.251C4.272.083.368 3.336.368 7.333c0 .782.157 1.564.466 2.322.359 1.307.714 3.653-.651 5.467.464-.049 2.547-.326 4.231-1.44l.192-.127.208.098c1.297.609 2.769.932 4.257.932 4.798 0 8.702-3.254 8.702-7.251z"/>
</symbol><symbol id="icon-chevron-up" viewBox="0 0 20 12">
    <path d="M2 10l8-8 8 8"/>
</symbol><symbol id="icon-dashboard" viewBox="0 0 20 20">
    <path fill-rule="evenodd" clip-rule="evenodd" d="M18.571 0H1.43C.643 0 0 .643 0 1.429v4.285h20V1.43C20 .643 19.357 0 18.571 0zM7.143 20H18.57c.786 0 1.429-.643 1.429-1.429V7.143H7.143V20zm-5.714 0A1.433 1.433 0 010 18.571V7.143h5.714V20H1.43z"/>
</symbol><symbol id="icon-download" viewBox="0 0 11 16">
    <path d="M4.82 1.056V12.63l-2.544-2.543a.848.848 0 00-1.227 0 .848.848 0 000 1.227l4.034 4.034c.35.351.876.351 1.227 0l4.034-4.034a.848.848 0 000-1.227.848.848 0 00-1.228 0L6.573 12.63V1.056a.879.879 0 00-.877-.877.879.879 0 00-.876.877z"/>
</symbol><symbol id="icon-dribble" viewBox="0 0 473 473">
    <path d="M236.662 473.297C106.162 473.297 0 367.127 0 236.65 0 106.197 106.162.028 236.662.028S473.325 106.197 473.325 236.65c0 130.477-106.163 236.647-236.663 236.647zm189.139-205.941c-6.547-2.041-59.293-17.799-119.316-8.197 25.055 68.838 35.256 124.943 37.212 136.571 42.973-29.055 73.577-75.074 82.104-128.374zM311.502 413.281c-2.867-16.803-13.988-75.386-40.884-145.254-.405.141-.826.265-1.263.421-108.032 37.619-146.819 112.584-150.271 119.629 32.467 25.313 73.297 40.424 117.578 40.424 26.529-.001 51.834-5.441 74.84-15.22zM94.348 365.024c4.332-7.435 56.914-94.473 155.704-126.409a185.73 185.73 0 017.543-2.261c-4.801-10.902-10.029-21.767-15.53-32.521-95.657 28.633-188.484 27.448-196.879 27.262a207.627 207.627 0 00-.085 5.852c0 49.207 18.649 94.121 49.247 128.077zM49.145 197.723c8.574.108 87.49.436 177.099-23.334-31.735-56.432-65.972-103.871-71.03-110.775-53.588 25.265-93.654 74.668-106.069 134.109zM191.773 50.747c5.299 7.084 40.088 54.453 71.48 112.131 68.129-25.561 96.949-64.287 100.387-69.182-33.823-30.035-78.309-48.264-126.979-48.264-15.46 0-30.486 1.839-44.888 5.315zm193.166 65.075c-4.029 5.472-36.145 46.62-106.965 75.51a625.334 625.334 0 0112.719 27.761c1.396 3.32 2.774 6.609 4.115 9.882 63.742-8.012 127.072 4.824 133.408 6.18-.429-45.21-16.584-86.726-43.277-119.333z" fill-rule="evenodd" clip-rule="evenodd"/>
</symbol><symbol id="icon-facebook-alt" viewBox="0 0 16 16">
    <path fill-rule="evenodd" clip-rule="evenodd" d="M3 0h10a3 3 0 013 3v10a3 3 0 01-3 3H3a3 3 0 01-3-3V3a3 3 0 013-3zm8 10.461h1.556L13 8.385h-2V7c-.105-.587.06-1.007.889-.923H13V4c-.188.058-.834 0-1.556 0-1.597 0-2.67.994-2.666 2.77v1.615H7v2.076h1.778V16H11v-5.539z"/>
</symbol><symbol id="icon-facebook" viewBox="0 0 155 155">
    <path d="M89.584 155.139V84.378h23.742l3.562-27.585H89.584V39.184c0-7.984 2.208-13.425 13.67-13.425l14.595-.006V1.08C115.325.752 106.661 0 96.577 0 75.52 0 61.104 12.853 61.104 36.452v20.341H37.29v27.585h23.814v70.761h28.48z" fill="#010002"/>
</symbol><symbol id="icon-mobile-vibration" viewBox="0 0 24 25">
    <path d="M15.535 3.308c-.756-.756-2.072-.756-2.828 0l-9.899 9.899a2 2 0 000 2.828l5.657 5.657c.378.378.88.586 1.414.586.534 0 1.036-.208 1.414-.586l9.899-9.899c.378-.378.586-.88.586-1.414 0-.534-.208-1.036-.586-1.414l-5.657-5.657zm-5.656 16.97v1-1l-5.657-5.657 9.899-9.899 5.657 5.657-9.899 9.899z"/>
    <path d="M9 16.5a1 1 0 100-2 1 1 0 000 2z"/>
    <path d="M15.707 22.207l-1.414-1.414 6-6 1.414 1.415-6 5.999z"/>
    <path d="M8.293 2.793l1.414 1.414-6 6-1.414-1.415 6-5.999z"/>
</symbol><symbol id="icon-net" viewBox="0 0 47 41">
    <path fill-rule="evenodd" clip-rule="evenodd" d="M45.978 19.502H44.14c-1.839-1.034-9.196-13.23-9.4-15.71l1.328-2.17c.307-.517.103-1.138-.306-1.448-.511-.31-1.124-.103-1.43.31l-1.125 1.964-.102.104c-.817.413-4.087.93-9.604.93-5.517 0-8.787-.517-9.502-.93l-.102-.104L12.772.484c-.307-.516-.92-.62-1.43-.31-.512.31-.614.93-.307 1.447l1.226 2.17c-.204 2.481-7.561 14.677-9.4 15.711H1.02C.41 19.502 0 19.915 0 20.536c0 .62.409 1.033 1.022 1.033H2.86c1.839 1.034 9.195 13.23 9.4 15.71l-1.328 2.17c-.307.517-.103 1.138.306 1.448.204.103.307.103.511.103.306 0 .715-.207.92-.517l1.123-1.963.103-.104c.613-.413 3.882-.827 9.502-.827 5.62 0 8.787.517 9.502.827l.102.104 1.124 1.963c.204.31.511.517.92.517.204 0 .408 0 .51-.103.511-.31.614-.93.307-1.447l-1.124-2.17c.205-2.481 7.561-14.78 9.4-15.71h1.84c.612 0 1.021-.414 1.021-1.035 0-.62-.409-1.033-1.022-1.033zm-10.115-8.268c.92 1.653 3.27 5.684 5.415 8.268h-5.313c-1.226-.827-5.109-6.925-5.62-8.579l2.861-4.857c.614 1.24 1.431 2.894 2.657 5.167zM25.339 21.569l3.78 6.408c.205-.31.41-.723.614-1.137.102-.206 1.737-3.204 3.473-5.27H25.34zm-8.072 5.271c-.102-.206-1.839-3.204-3.473-5.27h7.867l-3.78 6.407c-.205-.31-.41-.723-.614-1.137zm4.394-7.338l-3.78-6.408c-.205.31-.41.723-.614 1.137-.102.207-1.737 3.204-3.473 5.271h7.867zm-1.941-7.338c.92.103 2.145.206 3.78.206 1.635 0 2.86-.103 3.78-.206l-3.78 6.408-3.78-6.408zm7.56 16.743L23.5 22.5l-3.78 6.408a32.94 32.94 0 013.78-.206c1.635 0 2.86.103 3.78.206zm-1.94-9.405l3.78-6.408c.204.31.408.723.613 1.137.102.207 1.839 3.204 3.473 5.271H25.34zm6.232-14.366c-1.635.206-4.19.413-8.072.413-3.883 0-6.437-.207-8.072-.517L18.29 9.89c.511.207 2.35.413 5.211.413 2.86 0 4.7-.206 5.21-.413l2.862-4.755zm-20.435 6.097a39.242 39.242 0 002.554-5.167l2.861 4.857c-.409 1.654-4.393 7.752-5.62 8.579h-5.21c2.145-2.48 4.495-6.615 5.415-8.268zM5.722 21.57c2.145 2.584 4.495 6.615 5.415 8.269 1.226 2.273 2.043 3.927 2.554 5.167l2.963-4.857c-.51-1.654-4.393-7.752-5.62-8.579H5.723zM23.5 35.522c-3.883 0-6.437.207-8.072.414l2.861-4.755c.511-.207 2.35-.413 5.211-.413 2.86 0 4.7.206 5.21.413l2.862 4.755c-1.635-.207-4.19-.414-8.072-.414zm9.809-.517a39.239 39.239 0 012.554-5.167c.92-1.654 3.27-5.788 5.517-8.269h-5.313c-1.226.827-5.21 6.925-5.62 8.579l2.862 4.857z"/>
</symbol><symbol id="icon-night-mode" viewBox="0 0 16 16">
    <path d="M15.617 10.279A7.75 7.75 0 115.838.5a7 7 0 009.779 9.779z"/>
</symbol><symbol id="icon-quote" viewBox="0 0 38 33">
    <path d="M0 16.5V33h16.286V16.5H5.429c0-6.065 4.87-11 10.857-11V0C7.306 0 0 7.401 0 16.5z"/>
    <path d="M38 5.5V0c-8.98 0-16.286 7.401-16.286 16.5V33H38V16.5H27.143c0-6.065 4.87-11 10.857-11z"/>
</symbol><symbol id="icon-search-alt" viewBox="0 0 24 25">
    <path d="M10 18.5a7.952 7.952 0 004.897-1.688l4.396 4.396 1.414-1.414-4.396-4.396A7.952 7.952 0 0018 10.5c0-4.411-3.589-8-8-8s-8 3.589-8 8 3.589 8 8 8zm0-14c3.309 0 6 2.691 6 6s-2.691 6-6 6-6-2.691-6-6 2.691-6 6-6z"/>
    <path d="M11.412 9.086c.379.38.588.882.588 1.414h2a3.977 3.977 0 00-1.174-2.828c-1.514-1.512-4.139-1.512-5.652 0l1.412 1.416c.76-.758 2.07-.756 2.826-.002z"/>
</symbol><symbol id="icon-star" viewBox="0 0 16 15">
    <path d="M8 0l1.796 5.528h5.813l-4.703 3.416 1.796 5.528L8 11.056l-4.702 3.416 1.796-5.528L.392 5.528h5.812L8 0z"/>
</symbol><symbol id="icon-triangle-right" viewBox="0 0 22 32">
    <path fill-rule="evenodd" clip-rule="evenodd" d="M1.095.134a.685.685 0 00-.718-.06A.696.696 0 000 .696v30.61c0 .262.146.502.377.62a.682.682 0 00.718-.06L21.72 16.562a.7.7 0 000-1.123L1.095.134z"/>
</symbol><symbol id="icon-twitter-alt" viewBox="0 0 19 16">
    <path d="M19 1.894a7.59 7.59 0 01-2.239.636A4.033 4.033 0 0018.474.295a7.641 7.641 0 01-2.475.98A3.825 3.825 0 0013.154 0c-2.152 0-3.898 1.808-3.898 4.038 0 .317.034.626.101.921-3.24-.169-6.111-1.776-8.034-4.22a4.127 4.127 0 00-.528 2.03c0 1.401.688 2.638 1.734 3.362a3.77 3.77 0 01-1.766-.505v.051c0 1.957 1.344 3.59 3.126 3.96a3.787 3.787 0 01-1.76.07c.497 1.605 1.937 2.772 3.642 2.806A7.658 7.658 0 010 14.185 10.76 10.76 0 005.975 16c7.17 0 11.09-6.155 11.09-11.493 0-.175 0-.35-.012-.523A8.118 8.118 0 0019 1.894H19z"/>
</symbol><symbol id="icon-user" viewBox="0 0 16 18">
    <path d="M8 .6c1.992 0 3.6 1.608 3.6 3.6S9.992 7.8 8 7.8a3.595 3.595 0 01-3.6-3.6C4.4 2.208 6.008.6 8 .6z"/>
    <path d="M8 17.64a8.64 8.64 0 01-7.2-3.864C.836 11.388 5.6 10.08 8 10.08c2.388 0 7.164 1.308 7.2 3.696A8.64 8.64 0 018 17.64z"/>
</symbol><symbol id="icon-youtube-alt" viewBox="0 0 22 16">
    <path fill-rule="evenodd" clip-rule="evenodd" d="M8.556 11.43V4.571l6.11 3.44-6.11 3.417zM21.78 3.451s-.215-1.568-.874-2.259c-.837-.906-1.775-.91-2.205-.962C15.624 0 11.006 0 11.006 0h-.01S6.378 0 3.3.23c-.431.053-1.369.058-2.206.963-.66.69-.874 2.259-.874 2.259S0 5.292 0 7.132V8.86c0 1.84.22 3.68.22 3.68s.214 1.57.874 2.26c.837.905 1.936.877 2.426.971C5.28 15.946 11 16 11 16s4.622-.007 7.7-.238c.431-.052 1.369-.057 2.206-.963.66-.692.874-2.26.874-2.26S22 10.7 22 8.86V7.132c0-1.84-.22-3.68-.22-3.68z"/>
</symbol></svg>