<?xml version="1.0" encoding="UTF-8"?><!DOCTYPE svg PUBLIC "-//W3C//DTD SVG 1.1//EN" "http://www.w3.org/Graphics/SVG/1.1/DTD/svg11.dtd"><svg xmlns="http://www.w3.org/2000/svg" xmlns:xlink="http://www.w3.org/1999/xlink"><symbol id="icon-arrow-left" viewBox="0 0 29 19">
    <path d="M26.691 7.763H5.645l4.624-4.624c.638-.638.638-1.594 0-2.232-.638-.638-1.594-.638-2.232 0L.703 8.24c-.638.638-.638 1.594 0 2.232l7.334 7.334c.638.638 1.594.638 2.232 0 .638-.637.638-1.594 0-2.232l-4.624-4.623h21.046c.797 0 1.595-.638 1.595-1.595 0-.956-.798-1.594-1.595-1.594z"/>
</symbol><symbol id="icon-arrow-right" viewBox="0 0 15 9">
    <path d="M1.375 5.304h10.607l-2.33 2.33a.777.777 0 000 1.125.777.777 0 001.125 0l3.696-3.696a.777.777 0 000-1.125L10.777.24a.777.777 0 00-1.125 0 .777.777 0 000 1.125l2.33 2.33H1.375a.805.805 0 00-.804.804c0 .482.402.804.804.804z"/>
</symbol><symbol id="icon-calendar" viewBox="0 0 14 14">
    <path d="M11.083 2.333H9.917V1.75a.583.583 0 00-1.167 0v.583h-3.5V1.75a.583.583 0 00-1.167 0v.583H2.917a1.75 1.75 0 00-1.75 1.75v7a1.75 1.75 0 001.75 1.75h8.166a1.75 1.75 0 001.75-1.75v-7a1.75 1.75 0 00-1.75-1.75zm.584 8.75a.583.583 0 01-.584.584H2.917a.583.583 0 01-.584-.584V7h9.334v4.083zm0-5.25H2.333v-1.75a.583.583 0 01.584-.583h1.166v.583a.583.583 0 001.167 0V3.5h3.5v.583a.583.583 0 001.167 0V3.5h1.166a.583.583 0 01.584.583v1.75z"/>
</symbol><symbol id="icon-card-icon" viewBox="0 0 24 24">
    <path d="M24 3.14A3.14 3.14 0 0020.86 0H3.14A3.14 3.14 0 000 3.14v17.72A3.14 3.14 0 003.14 24h17.72A3.14 3.14 0 0024 20.86V3.14zM5.387 19.598a.7.7 0 01-.856-.857l.862-3.214 3.208 3.208-3.214.863zm13.855-11.69l-9.495 9.496-3.193-3.194 9.495-9.495c.45-.45 1.18-.45 1.63 0l1.563 1.563c.45.45.45 1.18 0 1.63z"/>
</symbol><symbol id="icon-chat" viewBox="0 0 20 17">
    <path d="M19.677 16.634c-.979-1.168-.742-2.757-.51-3.615a4.47 4.47 0 00.343-1.701c0-1.064-.379-2.054-1.026-2.883-.63 3.87-4.515 6.867-9.237 6.94 1.085.755 2.476 1.21 3.994 1.21a7.17 7.17 0 003.05-.67c1.386.92 3.112 1.045 3.112 1.045.746 0 .274-.326.274-.326z"/>
    <path d="M17.773 7.334c0-3.998-3.904-7.251-8.702-7.251C4.272.083.368 3.336.368 7.333c0 .782.157 1.564.466 2.322.359 1.307.714 3.653-.651 5.467.464-.049 2.547-.326 4.231-1.44l.192-.127.208.098c1.297.609 2.769.932 4.257.932 4.798 0 8.702-3.254 8.702-7.251z"/>
</symbol><symbol id="icon-chevron-up" viewBox="0 0 20 12">
    <path d="M2 10l8-8 8 8"/>
</symbol><symbol id="icon-dashboard" viewBox="0 0 20 20">
    <path fill-rule="evenodd" clip-rule="evenodd" d="M18.571 0H1.43C.643 0 0 .643 0 1.429v4.285h20V1.43C20 .643 19.357 0 18.571 0zM7.143 20H18.57c.786 0 1.429-.643 1.429-1.429V7.143H7.143V20zm-5.714 0A1.433 1.433 0 010 18.571V7.143h5.714V20H1.43z"/>
</symbol><symbol id="icon-download" viewBox="0 0 11 16">
    <path d="M4.82 1.056V12.63l-2.544-2.543a.848.848 0 00-1.227 0 .848.848 0 000 1.227l4.034 4.034c.35.351.876.351 1.227 0l4.034-4.034a.848.848 0 000-1.227.848.848 0 00-1.228 0L6.573 12.63V1.056a.879.879 0 00-.877-.877.879.879 0 00-.876.877z"/>
</symbol><symbol id="icon-facebook-alt" viewBox="0 0 16 16">
    <path fill-rule="evenodd" clip-rule="evenodd" d="M3 0h10a3 3 0 013 3v10a3 3 0 01-3 3H3a3 3 0 01-3-3V3a3 3 0 013-3zm8 10.461h1.556L13 8.385h-2V7c-.105-.587.06-1.007.889-.923H13V4c-.188.058-.834 0-1.556 0-1.597 0-2.67.994-2.666 2.77v1.615H7v2.076h1.778V16H11v-5.539z"/>
</symbol><symbol id="icon-mobile-vibration" viewBox="0 0 24 25">
    <path d="M15.535 3.308c-.756-.756-2.072-.756-2.828 0l-9.899 9.899a2 2 0 000 2.828l5.657 5.657c.378.378.88.586 1.414.586.534 0 1.036-.208 1.414-.586l9.899-9.899c.378-.378.586-.88.586-1.414 0-.534-.208-1.036-.586-1.414l-5.657-5.657zm-5.656 16.97v1-1l-5.657-5.657 9.899-9.899 5.657 5.657-9.899 9.899z"/>
    <path d="M9 16.5a1 1 0 100-2 1 1 0 000 2z"/>
    <path d="M15.707 22.207l-1.414-1.414 6-6 1.414 1.415-6 5.999z"/>
    <path d="M8.293 2.793l1.414 1.414-6 6-1.414-1.415 6-5.999z"/>
</symbol><symbol id="icon-night-mode" viewBox="0 0 16 16">
    <path d="M15.617 10.279A7.75 7.75 0 115.838.5a7 7 0 009.779 9.779z"/>
</symbol><symbol id="icon-quote" viewBox="0 0 38 33">
    <path d="M0 16.5V33h16.286V16.5H5.429c0-6.065 4.87-11 10.857-11V0C7.306 0 0 7.401 0 16.5z"/>
    <path d="M38 5.5V0c-8.98 0-16.286 7.401-16.286 16.5V33H38V16.5H27.143c0-6.065 4.87-11 10.857-11z"/>
</symbol><symbol id="icon-search-alt" viewBox="0 0 24 25">
    <path d="M10 18.5a7.952 7.952 0 004.897-1.688l4.396 4.396 1.414-1.414-4.396-4.396A7.952 7.952 0 0018 10.5c0-4.411-3.589-8-8-8s-8 3.589-8 8 3.589 8 8 8zm0-14c3.309 0 6 2.691 6 6s-2.691 6-6 6-6-2.691-6-6 2.691-6 6-6z"/>
    <path d="M11.412 9.086c.379.38.588.882.588 1.414h2a3.977 3.977 0 00-1.174-2.828c-1.514-1.512-4.139-1.512-5.652 0l1.412 1.416c.76-.758 2.07-.756 2.826-.002z"/>
</symbol><symbol id="icon-star" viewBox="0 0 16 15">
    <path d="M8 0l1.796 5.528h5.813l-4.703 3.416 1.796 5.528L8 11.056l-4.702 3.416 1.796-5.528L.392 5.528h5.812L8 0z"/>
</symbol><symbol id="icon-twitter-alt" viewBox="0 0 19 16">
    <path d="M19 1.894a7.59 7.59 0 01-2.239.636A4.033 4.033 0 0018.474.295a7.641 7.641 0 01-2.475.98A3.825 3.825 0 0013.154 0c-2.152 0-3.898 1.808-3.898 4.038 0 .317.034.626.101.921-3.24-.169-6.111-1.776-8.034-4.22a4.127 4.127 0 00-.528 2.03c0 1.401.688 2.638 1.734 3.362a3.77 3.77 0 01-1.766-.505v.051c0 1.957 1.344 3.59 3.126 3.96a3.787 3.787 0 01-1.76.07c.497 1.605 1.937 2.772 3.642 2.806A7.658 7.658 0 010 14.185 10.76 10.76 0 005.975 16c7.17 0 11.09-6.155 11.09-11.493 0-.175 0-.35-.012-.523A8.118 8.118 0 0019 1.894H19z"/>
</symbol><symbol id="icon-user" viewBox="0 0 16 18">
    <path d="M8 .6c1.992 0 3.6 1.608 3.6 3.6S9.992 7.8 8 7.8a3.595 3.595 0 01-3.6-3.6C4.4 2.208 6.008.6 8 .6z"/>
    <path d="M8 17.64a8.64 8.64 0 01-7.2-3.864C.836 11.388 5.6 10.08 8 10.08c2.388 0 7.164 1.308 7.2 3.696A8.64 8.64 0 018 17.64z"/>
</symbol><symbol id="icon-youtube-alt" viewBox="0 0 22 16">
    <path fill-rule="evenodd" clip-rule="evenodd" d="M8.556 11.43V4.571l6.11 3.44-6.11 3.417zM21.78 3.451s-.215-1.568-.874-2.259c-.837-.906-1.775-.91-2.205-.962C15.624 0 11.006 0 11.006 0h-.01S6.378 0 3.3.23c-.431.053-1.369.058-2.206.963-.66.69-.874 2.259-.874 2.259S0 5.292 0 7.132V8.86c0 1.84.22 3.68.22 3.68s.214 1.57.874 2.26c.837.905 1.936.877 2.426.971C5.28 15.946 11 16 11 16s4.622-.007 7.7-.238c.431-.052 1.369-.057 2.206-.963.66-.692.874-2.26.874-2.26S22 10.7 22 8.86V7.132c0-1.84-.22-3.68-.22-3.68z"/>
</symbol></svg>