<?xml version="1.0" encoding="UTF-8"?><!DOCTYPE svg PUBLIC "-//W3C//DTD SVG 1.1//EN" "http://www.w3.org/Graphics/SVG/1.1/DTD/svg11.dtd"><svg xmlns="http://www.w3.org/2000/svg" xmlns:xlink="http://www.w3.org/1999/xlink"><symbol id="icon-card-icon" viewBox="0 0 24 24">
    <path d="M24 3.14A3.14 3.14 0 0 0 20.86 0H3.14A3.14 3.14 0 0 0 0 3.14v17.72A3.14 3.14 0 0 0 3.14 24h17.72A3.14 3.14 0 0 0 24 20.86V3.14zM5.387 19.598a.7.7 0 0 1-.856-.857l.862-3.214 3.208 3.208-3.214.863zm13.855-11.69l-9.495 9.496-3.193-3.194 9.495-9.495c.45-.45 1.18-.45 1.63 0l1.563 1.563c.45.45.45 1.18 0 1.63z"/>
</symbol><symbol id="icon-chevron-up" viewBox="0 0 20 12">
    <path d="M2 10l8-8 8 8"/>
</symbol><symbol id="icon-mobile-vibration" viewBox="0 0 24 25">
    <path d="M15.535 3.308c-.756-.756-2.072-.756-2.828 0l-9.899 9.899a2 2 0 0 0 0 2.828l5.657 5.657c.378.378.88.586 1.414.586.534 0 1.036-.208 1.414-.586l9.899-9.899c.378-.378.586-.88.586-1.414 0-.534-.208-1.036-.586-1.414l-5.657-5.657zm-5.656 16.97v1-1l-5.657-5.657 9.899-9.899 5.657 5.657-9.899 9.899z"/>
    <path d="M9 16.5a1 1 0 1 0 0-2 1 1 0 0 0 0 2z"/>
    <path d="M15.707 22.207l-1.414-1.414 6-6 1.414 1.415-6 5.999z"/>
    <path d="M8.293 2.793l1.414 1.414-6 6-1.414-1.415 6-5.999z"/>
</symbol><symbol id="icon-quote" viewBox="0 0 38 33">
    <path d="M0 16.5V33h16.286V16.5H5.429c0-6.065 4.87-11 10.857-11V0C7.306 0 0 7.401 0 16.5z"/>
    <path d="M38 5.5V0c-8.98 0-16.286 7.401-16.286 16.5V33H38V16.5H27.143c0-6.065 4.87-11 10.857-11z"/>
</symbol><symbol id="icon-search-alt" viewBox="0 0 24 25">
    <path d="M10 18.5a7.952 7.952 0 0 0 4.897-1.688l4.396 4.396 1.414-1.414-4.396-4.396A7.952 7.952 0 0 0 18 10.5c0-4.411-3.589-8-8-8s-8 3.589-8 8 3.589 8 8 8zm0-14c3.309 0 6 2.691 6 6s-2.691 6-6 6-6-2.691-6-6 2.691-6 6-6z"/>
    <path d="M11.412 9.086c.379.38.588.882.588 1.414h2a3.977 3.977 0 0 0-1.174-2.828c-1.514-1.512-4.139-1.512-5.652 0l1.412 1.416c.76-.758 2.07-.756 2.826-.002z"/>
</symbol><symbol id="icon-star" viewBox="0 0 16 15">
    <path d="M8 0l1.796 5.528h5.813l-4.703 3.416 1.796 5.528L8 11.056l-4.702 3.416 1.796-5.528L.392 5.528h5.812L8 0z"/>
</symbol><symbol id="icon-user" viewBox="0 0 16 18">
    <path d="M8 .6c1.992 0 3.6 1.608 3.6 3.6S9.992 7.8 8 7.8a3.595 3.595 0 0 1-3.6-3.6C4.4 2.208 6.008.6 8 .6z"/>
    <path d="M8 17.64a8.64 8.64 0 0 1-7.2-3.864C.836 11.388 5.6 10.08 8 10.08c2.388 0 7.164 1.308 7.2 3.696A8.64 8.64 0 0 1 8 17.64z"/>
</symbol></svg>