<svg width="123" height="31" viewBox="0 0 123 31" fill="none" xmlns="http://www.w3.org/2000/svg">
<path fill-rule="evenodd" clip-rule="evenodd" d="M32.2826 15.7941H30.9913C29.7 15.063 24.5348 6.43658 24.3913 4.68205L25.3239 3.14684C25.5391 2.78131 25.3957 2.34268 25.1087 2.12337C24.75 1.90405 24.3196 2.05026 24.1043 2.34268L23.3152 3.73168L23.2435 3.80479C22.6696 4.09721 20.3739 4.46274 16.5 4.46274C12.6261 4.46274 10.3304 4.09721 9.82826 3.80479L9.75652 3.73168L8.96739 2.34268C8.75217 1.97715 8.32174 1.90405 7.96304 2.12337C7.60435 2.34268 7.53261 2.78131 7.74783 3.14684L8.6087 4.68205C8.46522 6.43658 3.3 15.063 2.0087 15.7941H0.717391C0.286957 15.7941 0 16.0865 0 16.5251C0 16.9638 0.286957 17.2562 0.717391 17.2562H2.0087C3.3 17.9872 8.46522 26.6137 8.6087 28.3682L7.67609 29.9034C7.46087 30.2689 7.60435 30.7076 7.8913 30.9269C8.03478 31 8.10652 31 8.25 31C8.46522 31 8.75217 30.8538 8.89565 30.6345L9.68478 29.2455L9.75652 29.1724C10.187 28.8799 12.4826 28.5875 16.4283 28.5875C20.3739 28.5875 22.5978 28.953 23.1 29.1724L23.1717 29.2455L23.9609 30.6345C24.1043 30.8538 24.3196 31 24.6065 31C24.75 31 24.8935 31 24.9652 30.9269C25.3239 30.7076 25.3957 30.2689 25.1804 29.9034L24.3913 28.3682C24.5348 26.6137 29.7 17.9141 30.9913 17.2562H32.2826C32.713 17.2562 33 16.9638 33 16.5251C33 16.0865 32.713 15.7941 32.2826 15.7941ZM25.1804 9.94564C25.8261 11.1153 27.4761 13.9664 28.9826 15.7941H25.2522C24.3913 15.2092 21.6652 10.896 21.3065 9.72633L23.3152 6.29037C23.7457 7.16764 24.3196 8.33732 25.1804 9.94564ZM17.7913 17.2562L20.4457 21.7887C20.5891 21.5694 20.7326 21.277 20.8761 20.9846C20.9478 20.8383 22.0957 18.7183 23.3152 17.2562H17.7913ZM12.1239 20.9846C12.0522 20.8383 10.8326 18.7183 9.68478 17.2562H15.2087L12.5543 21.7887C12.4109 21.5694 12.2674 21.277 12.1239 20.9846L12.1239 20.9846ZM15.2087 15.7941L12.5543 11.2615C12.4109 11.4809 12.2674 11.7733 12.1239 12.0657L12.1239 12.0657C12.0522 12.2119 10.9043 14.332 9.68478 15.7941H15.2087ZM13.8457 10.6036C14.4913 10.6767 15.3522 10.7498 16.5 10.7498C17.6478 10.7498 18.5087 10.6767 19.1543 10.6036L16.5 15.1361L13.8457 10.6036ZM19.1543 22.4467L16.5 17.9141L13.8457 22.4467C14.4913 22.3736 15.3522 22.3005 16.5 22.3005C17.6478 22.3005 18.5087 22.3736 19.1543 22.4467ZM17.7913 15.7941L20.4457 11.2615C20.5891 11.4809 20.7326 11.7733 20.8761 12.0657C20.9478 12.2119 22.1674 14.332 23.3152 15.7941H17.7913ZM22.1674 5.63242C21.0196 5.77864 19.2261 5.92485 16.5 5.92485C13.7739 5.92485 11.9804 5.77864 10.8326 5.55932L12.8413 8.99527C13.2 9.14148 14.4913 9.28769 16.5 9.28769C18.5087 9.28769 19.8 9.14148 20.1587 8.99527L22.1674 5.63242ZM7.81956 9.94564C8.75217 8.33732 9.25435 7.16764 9.61304 6.29037L11.6217 9.72633C11.3348 10.896 8.53696 15.2092 7.67609 15.7941H4.01739C5.52391 14.0395 7.17391 11.1153 7.81956 9.94564ZM4.01739 17.2562C5.52391 19.0838 7.17391 21.9349 7.81956 23.1046C8.68043 24.7129 9.25435 25.8826 9.61304 26.7599L11.6935 23.3239C11.3348 22.1542 8.6087 17.841 7.74783 17.2562H4.01739ZM16.5 27.1254C13.7739 27.1254 11.9804 27.2716 10.8326 27.4178L12.8413 24.055C13.2 23.9088 14.4913 23.7626 16.5 23.7626C18.5087 23.7626 19.8 23.9088 20.1587 24.055L22.1674 27.4178C21.0196 27.2716 19.2261 27.1254 16.5 27.1254ZM23.387 26.7599C23.7457 25.8826 24.2478 24.7129 25.1804 23.1046C25.8261 21.9349 27.4761 19.0107 29.0543 17.2562H25.3239C24.463 17.841 21.6652 22.1542 21.3783 23.3239L23.387 26.7599Z" fill="white"/>
<path d="M53.126 18.006L57.91 11.168H53.776L51.046 15.77L48.29 11.168H44.104L48.81 17.98L43.922 25H48.03L50.942 20.216L53.776 25H57.962L53.126 18.006ZM69.1944 7.19C68.3104 7.086 67.6344 7.06 66.5944 7.06H60.3804V25H63.9684V18.24H66.5944C67.6344 18.24 68.3104 18.214 69.1944 18.11C71.7944 17.798 74.0304 15.952 74.0304 12.65C74.0304 9.348 71.9244 7.502 69.1944 7.19ZM68.1284 15.328C67.7384 15.38 67.1924 15.406 66.5424 15.406H63.9684V9.894H66.5424C67.1924 9.894 67.7384 9.92 68.1284 9.972C69.3764 10.154 70.2604 10.96 70.2604 12.65C70.2604 14.34 69.3764 15.146 68.1284 15.328ZM77.6976 6.02C76.5276 6.02 75.7216 6.8 75.7216 7.918C75.7216 9.062 76.5276 9.816 77.6976 9.816C78.8676 9.816 79.6736 9.062 79.6736 7.918C79.6736 6.8 78.8676 6.02 77.6976 6.02ZM79.4916 25V11.168H75.9036V25H79.4916ZM96.2519 5.89H92.6639V13.014L91.7539 11.584C91.0519 11.09 89.6479 10.804 88.5039 10.804C84.9419 10.804 81.8739 13.326 81.8739 18.344C81.8739 22.426 84.1619 25.364 88.0359 25.364C89.4399 25.364 90.8439 25 91.6239 24.402L92.6639 22.868V25H96.2519V5.89ZM89.0759 22.842C86.9439 22.842 85.5919 20.944 85.5919 18.11C85.5919 14.912 87.1259 13.326 89.2059 13.326C90.8699 13.326 92.6639 14.444 92.6639 17.564V18.24C92.6639 21.62 91.0519 22.842 89.0759 22.842ZM112.126 17.798C112.126 14.028 109.89 10.804 105.652 10.804C101.414 10.804 98.6317 13.898 98.6317 18.136C98.6317 22.998 101.57 25.364 105.366 25.364C108.616 25.364 111.216 23.726 111.918 20.502H108.33C108.096 21.984 106.978 22.842 105.444 22.842C103.78 22.842 102.48 21.932 102.246 19.02H112.074C112.126 18.552 112.126 18.136 112.126 17.798ZM105.496 13.326C107.212 13.326 108.2 14.496 108.434 16.68H102.35C102.662 14.392 103.832 13.326 105.496 13.326ZM121.645 10.83C120.865 10.83 119.955 11.142 119.279 11.766L118.187 13.69V11.168H114.599V25H118.187V18.656C118.187 14.938 119.669 13.612 122.659 13.82V10.934C122.347 10.856 122.061 10.83 121.645 10.83Z" fill="white"/>
</svg>
