<svg width="27" height="27" viewBox="0 0 27 27" fill="none" xmlns="http://www.w3.org/2000/svg">
<path d="M0 13.5002C0 19.0282 3.32416 23.7773 8.08091 25.8653C8.04294 24.9226 8.07416 23.7909 8.31589 22.7652C8.57545 21.6693 10.053 15.409 10.053 15.409C10.053 15.409 9.6217 14.547 9.6217 13.273C9.6217 11.2724 10.7812 9.77822 12.2253 9.77822C13.4533 9.77822 14.0465 10.7005 14.0465 11.805C14.0465 13.0394 13.2592 14.8859 12.8543 16.596C12.5161 18.0281 13.5724 19.1962 14.9851 19.1962C17.5429 19.1962 19.2657 15.9109 19.2657 12.0185C19.2657 9.05966 17.2728 6.84503 13.6482 6.84503C9.55304 6.84503 7.00186 9.89898 7.00186 13.3103C7.00186 14.4864 7.34864 15.3159 7.8918 15.9582C8.14155 16.2532 8.17625 16.3718 8.08587 16.7106C8.02111 16.959 7.8724 17.557 7.8108 17.7939C7.72095 18.1359 7.44388 18.2581 7.13486 18.1319C5.24865 17.3618 4.3702 15.2962 4.3702 12.9742C4.3702 9.13929 7.60451 4.54085 14.0187 4.54085C19.173 4.54085 22.5654 8.27065 22.5654 12.2743C22.5654 17.5702 19.6211 21.5267 15.281 21.5267C13.8236 21.5267 12.4526 20.7388 11.9829 19.8439C11.9829 19.8439 11.1992 22.9544 11.0332 23.5551C10.7469 24.5959 10.1867 25.6363 9.67444 26.4471C10.9166 26.8144 12.2052 27.0009 13.5005 27.0007C20.9555 27.0007 27.0001 20.9564 27.0001 13.5002C27.0001 6.04431 20.9555 0 13.5005 0C6.04484 0 0 6.04431 0 13.5002Z" fill="url(#paint0_linear)"/>
<defs>
<linearGradient id="paint0_linear" x1="3.24" y1="-4.37858e-07" x2="18.9" y2="27" gradientUnits="userSpaceOnUse">
<stop stop-color="#D22A2D"/>
<stop offset="1" stop-color="#D22C2E"/>
</linearGradient>
</defs>
</svg>
