<svg width="37" height="40" viewBox="0 0 37 40" fill="none" xmlns="http://www.w3.org/2000/svg">
<path d="M20.4062 39H4.375C2.51116 39 1 37.4532 1 35.5455V4.45455C1 2.54677 2.51116 1 4.375 1H24.625C26.4888 1 28 2.54677 28 4.45455V19.1364" stroke="#2F5BEA" stroke-width="2" stroke-linecap="square"/>
<path d="M1 7.5H28" stroke="#2F5BEA" stroke-width="2" stroke-linecap="square"/>
<path d="M1 30.5H16" stroke="#2F5BEA" stroke-width="2" stroke-linecap="square"/>
<path fill-rule="evenodd" clip-rule="evenodd" d="M34.8018 25.2623C32.9776 23.3399 29.9325 23.654 28.5 25.9282C27.0658 23.6514 24.0207 23.3416 22.1982 25.2623C20.6006 26.9459 20.6006 29.6759 22.1982 31.3586L28.4992 38L34.8018 31.3586C36.3994 29.675 36.3994 26.9459 34.8018 25.2623Z" stroke="#2F5BEA" stroke-width="2" stroke-linecap="square"/>
</svg>
