<svg width="1365" height="407" viewBox="0 0 1365 407" fill="none" xmlns="http://www.w3.org/2000/svg">
<g opacity="0.131766">
<path fill-rule="evenodd" clip-rule="evenodd" d="M174.774 244.393C174.774 245.715 173.706 246.787 172.386 246.787C171.069 246.787 170 245.715 170 244.393C170 243.071 171.069 242 172.386 242C173.706 242 174.774 243.071 174.774 244.393Z" fill="#1B8BC8"/>
<path fill-rule="evenodd" clip-rule="evenodd" d="M189.097 244.393C189.097 245.715 188.028 246.787 186.709 246.787C185.391 246.787 184.323 245.715 184.323 244.393C184.323 243.071 185.391 242 186.709 242C188.028 242 189.097 243.071 189.097 244.393Z" fill="#1B8BC8"/>
<path fill-rule="evenodd" clip-rule="evenodd" d="M202.226 244.393C202.226 245.715 201.157 246.787 199.839 246.787C198.52 246.787 197.452 245.715 197.452 244.393C197.452 243.071 198.52 242 199.839 242C201.157 242 202.226 243.071 202.226 244.393Z" fill="#1B8BC8"/>
<path fill-rule="evenodd" clip-rule="evenodd" d="M216.548 244.393C216.548 245.715 215.48 246.787 214.16 246.787C212.842 246.787 211.774 245.715 211.774 244.393C211.774 243.071 212.842 242 214.16 242C215.48 242 216.548 243.071 216.548 244.393Z" fill="#1B8BC8"/>
<path fill-rule="evenodd" clip-rule="evenodd" d="M229.677 244.393C229.677 245.715 228.609 246.787 227.29 246.787C225.972 246.787 224.903 245.715 224.903 244.393C224.903 243.071 225.972 242 227.29 242C228.609 242 229.677 243.071 229.677 244.393Z" fill="#1B8BC8"/>
<path fill-rule="evenodd" clip-rule="evenodd" d="M174.774 257.557C174.774 258.879 173.706 259.951 172.386 259.951C171.069 259.951 170 258.879 170 257.557C170 256.236 171.069 255.164 172.386 255.164C173.706 255.164 174.774 256.236 174.774 257.557Z" fill="#1B8BC8"/>
<path fill-rule="evenodd" clip-rule="evenodd" d="M189.097 257.557C189.097 258.879 188.028 259.951 186.709 259.951C185.391 259.951 184.323 258.879 184.323 257.557C184.323 256.236 185.391 255.164 186.709 255.164C188.028 255.164 189.097 256.236 189.097 257.557Z" fill="#1B8BC8"/>
<path fill-rule="evenodd" clip-rule="evenodd" d="M202.226 257.557C202.226 258.879 201.157 259.951 199.839 259.951C198.52 259.951 197.452 258.879 197.452 257.557C197.452 256.236 198.52 255.164 199.839 255.164C201.157 255.164 202.226 256.236 202.226 257.557Z" fill="#1B8BC8"/>
<path fill-rule="evenodd" clip-rule="evenodd" d="M216.548 257.557C216.548 258.879 215.48 259.951 214.16 259.951C212.842 259.951 211.774 258.879 211.774 257.557C211.774 256.236 212.842 255.164 214.16 255.164C215.48 255.164 216.548 256.236 216.548 257.557Z" fill="#1B8BC8"/>
<path fill-rule="evenodd" clip-rule="evenodd" d="M229.677 257.557C229.677 258.879 228.609 259.951 227.29 259.951C225.972 259.951 224.903 258.879 224.903 257.557C224.903 256.236 225.972 255.164 227.29 255.164C228.609 255.164 229.677 256.236 229.677 257.557Z" fill="#1B8BC8"/>
<path fill-rule="evenodd" clip-rule="evenodd" d="M174.774 272.517C174.774 274.168 173.706 275.508 172.386 275.508C171.069 275.508 170 274.168 170 272.517C170 270.864 171.069 269.525 172.386 269.525C173.706 269.525 174.774 270.864 174.774 272.517Z" fill="#1B8BC8"/>
<path fill-rule="evenodd" clip-rule="evenodd" d="M189.097 272.517C189.097 274.168 188.028 275.508 186.709 275.508C185.391 275.508 184.323 274.168 184.323 272.517C184.323 270.864 185.391 269.525 186.709 269.525C188.028 269.525 189.097 270.864 189.097 272.517Z" fill="#1B8BC8"/>
<path fill-rule="evenodd" clip-rule="evenodd" d="M202.226 272.517C202.226 274.168 201.157 275.508 199.839 275.508C198.52 275.508 197.452 274.168 197.452 272.517C197.452 270.864 198.52 269.525 199.839 269.525C201.157 269.525 202.226 270.864 202.226 272.517Z" fill="#1B8BC8"/>
<path fill-rule="evenodd" clip-rule="evenodd" d="M216.548 272.517C216.548 274.168 215.48 275.508 214.16 275.508C212.842 275.508 211.774 274.168 211.774 272.517C211.774 270.864 212.842 269.525 214.16 269.525C215.48 269.525 216.548 270.864 216.548 272.517Z" fill="#1B8BC8"/>
<path fill-rule="evenodd" clip-rule="evenodd" d="M229.677 272.517C229.677 274.168 228.609 275.508 227.29 275.508C225.972 275.508 224.903 274.168 224.903 272.517C224.903 270.864 225.972 269.525 227.29 269.525C228.609 269.525 229.677 270.864 229.677 272.517Z" fill="#1B8BC8"/>
<path fill-rule="evenodd" clip-rule="evenodd" d="M174.774 285.68C174.774 287.332 173.706 288.672 172.386 288.672C171.069 288.672 170 287.332 170 285.68C170 284.028 171.069 282.688 172.386 282.688C173.706 282.688 174.774 284.028 174.774 285.68Z" fill="#1B8BC8"/>
<path fill-rule="evenodd" clip-rule="evenodd" d="M189.097 285.68C189.097 287.332 188.028 288.672 186.709 288.672C185.391 288.672 184.323 287.332 184.323 285.68C184.323 284.028 185.391 282.688 186.709 282.688C188.028 282.688 189.097 284.028 189.097 285.68Z" fill="#1B8BC8"/>
<path fill-rule="evenodd" clip-rule="evenodd" d="M202.226 285.68C202.226 287.332 201.157 288.672 199.839 288.672C198.52 288.672 197.452 287.332 197.452 285.68C197.452 284.028 198.52 282.688 199.839 282.688C201.157 282.688 202.226 284.028 202.226 285.68Z" fill="#1B8BC8"/>
<path fill-rule="evenodd" clip-rule="evenodd" d="M216.548 285.68C216.548 287.332 215.48 288.672 214.16 288.672C212.842 288.672 211.774 287.332 211.774 285.68C211.774 284.028 212.842 282.688 214.16 282.688C215.48 282.688 216.548 284.028 216.548 285.68Z" fill="#1B8BC8"/>
<path fill-rule="evenodd" clip-rule="evenodd" d="M229.677 285.68C229.677 287.332 228.609 288.672 227.29 288.672C225.972 288.672 224.903 287.332 224.903 285.68C224.903 284.028 225.972 282.688 227.29 282.688C228.609 282.688 229.677 284.028 229.677 285.68Z" fill="#1B8BC8"/>
<path fill-rule="evenodd" clip-rule="evenodd" d="M174.774 299.443C174.774 300.764 173.706 301.836 172.386 301.836C171.069 301.836 170 300.764 170 299.443C170 298.121 171.069 297.049 172.386 297.049C173.706 297.049 174.774 298.121 174.774 299.443Z" fill="#1B8BC8"/>
<path fill-rule="evenodd" clip-rule="evenodd" d="M189.097 299.443C189.097 300.764 188.028 301.836 186.709 301.836C185.391 301.836 184.323 300.764 184.323 299.443C184.323 298.121 185.391 297.049 186.709 297.049C188.028 297.049 189.097 298.121 189.097 299.443Z" fill="#1B8BC8"/>
<path fill-rule="evenodd" clip-rule="evenodd" d="M202.226 299.443C202.226 300.764 201.157 301.836 199.839 301.836C198.52 301.836 197.452 300.764 197.452 299.443C197.452 298.121 198.52 297.049 199.839 297.049C201.157 297.049 202.226 298.121 202.226 299.443Z" fill="#1B8BC8"/>
<path fill-rule="evenodd" clip-rule="evenodd" d="M216.548 299.443C216.548 300.764 215.48 301.836 214.16 301.836C212.842 301.836 211.774 300.764 211.774 299.443C211.774 298.121 212.842 297.049 214.16 297.049C215.48 297.049 216.548 298.121 216.548 299.443Z" fill="#1B8BC8"/>
<path fill-rule="evenodd" clip-rule="evenodd" d="M229.677 299.443C229.677 300.764 228.609 301.836 227.29 301.836C225.972 301.836 224.903 300.764 224.903 299.443C224.903 298.121 225.972 297.049 227.29 297.049C228.609 297.049 229.677 298.121 229.677 299.443Z" fill="#1B8BC8"/>
<path fill-rule="evenodd" clip-rule="evenodd" d="M174.774 312.607C174.774 313.929 173.706 315 172.386 315C171.069 315 170 313.929 170 312.607C170 311.285 171.069 310.213 172.386 310.213C173.706 310.213 174.774 311.285 174.774 312.607Z" fill="#1B8BC8"/>
<path fill-rule="evenodd" clip-rule="evenodd" d="M189.097 312.607C189.097 313.929 188.028 315 186.709 315C185.391 315 184.323 313.929 184.323 312.607C184.323 311.285 185.391 310.213 186.709 310.213C188.028 310.213 189.097 311.285 189.097 312.607Z" fill="#1B8BC8"/>
<path fill-rule="evenodd" clip-rule="evenodd" d="M202.226 312.607C202.226 313.929 201.157 315 199.839 315C198.52 315 197.452 313.929 197.452 312.607C197.452 311.285 198.52 310.213 199.839 310.213C201.157 310.213 202.226 311.285 202.226 312.607Z" fill="#1B8BC8"/>
<path fill-rule="evenodd" clip-rule="evenodd" d="M216.548 312.607C216.548 313.929 215.48 315 214.16 315C212.842 315 211.774 313.929 211.774 312.607C211.774 311.285 212.842 310.213 214.16 310.213C215.48 310.213 216.548 311.285 216.548 312.607Z" fill="#1B8BC8"/>
<path fill-rule="evenodd" clip-rule="evenodd" d="M229.677 312.607C229.677 313.929 228.609 315 227.29 315C225.972 315 224.903 313.929 224.903 312.607C224.903 311.285 225.972 310.213 227.29 310.213C228.609 310.213 229.677 311.285 229.677 312.607Z" fill="#1B8BC8"/>
<path fill-rule="evenodd" clip-rule="evenodd" d="M244 244.393C244 245.715 242.932 246.787 241.612 246.787C240.294 246.787 239.226 245.715 239.226 244.393C239.226 243.071 240.294 242 241.612 242C242.932 242 244 243.071 244 244.393Z" fill="#1B8BC8"/>
<path fill-rule="evenodd" clip-rule="evenodd" d="M244 257.557C244 258.879 242.932 259.951 241.612 259.951C240.294 259.951 239.226 258.879 239.226 257.557C239.226 256.236 240.294 255.164 241.612 255.164C242.932 255.164 244 256.236 244 257.557Z" fill="#1B8BC8"/>
<path fill-rule="evenodd" clip-rule="evenodd" d="M244 272.517C244 274.168 242.932 275.508 241.612 275.508C240.294 275.508 239.226 274.168 239.226 272.517C239.226 270.864 240.294 269.525 241.612 269.525C242.932 269.525 244 270.864 244 272.517Z" fill="#1B8BC8"/>
<path fill-rule="evenodd" clip-rule="evenodd" d="M244 285.68C244 287.332 242.932 288.672 241.612 288.672C240.294 288.672 239.226 287.332 239.226 285.68C239.226 284.028 240.294 282.688 241.612 282.688C242.932 282.688 244 284.028 244 285.68Z" fill="#1B8BC8"/>
<path fill-rule="evenodd" clip-rule="evenodd" d="M244 299.443C244 300.764 242.932 301.836 241.612 301.836C240.294 301.836 239.226 300.764 239.226 299.443C239.226 298.121 240.294 297.049 241.612 297.049C242.932 297.049 244 298.121 244 299.443Z" fill="#1B8BC8"/>
<path fill-rule="evenodd" clip-rule="evenodd" d="M244 312.607C244 313.929 242.932 315 241.612 315C240.294 315 239.226 313.929 239.226 312.607C239.226 311.285 240.294 310.213 241.612 310.213C242.932 310.213 244 311.285 244 312.607Z" fill="#1B8BC8"/>
<path fill-rule="evenodd" clip-rule="evenodd" d="M174.774 324.393C174.774 325.715 173.706 326.787 172.386 326.787C171.069 326.787 170 325.715 170 324.393C170 323.071 171.069 322 172.386 322C173.706 322 174.774 323.071 174.774 324.393Z" fill="#1B8BC8"/>
<path fill-rule="evenodd" clip-rule="evenodd" d="M189.097 324.393C189.097 325.715 188.028 326.787 186.709 326.787C185.391 326.787 184.323 325.715 184.323 324.393C184.323 323.071 185.391 322 186.709 322C188.028 322 189.097 323.071 189.097 324.393Z" fill="#1B8BC8"/>
<path fill-rule="evenodd" clip-rule="evenodd" d="M202.226 324.393C202.226 325.715 201.157 326.787 199.839 326.787C198.52 326.787 197.452 325.715 197.452 324.393C197.452 323.071 198.52 322 199.839 322C201.157 322 202.226 323.071 202.226 324.393Z" fill="#1B8BC8"/>
<path fill-rule="evenodd" clip-rule="evenodd" d="M216.548 324.393C216.548 325.715 215.48 326.787 214.16 326.787C212.842 326.787 211.774 325.715 211.774 324.393C211.774 323.071 212.842 322 214.16 322C215.48 322 216.548 323.071 216.548 324.393Z" fill="#1B8BC8"/>
<path fill-rule="evenodd" clip-rule="evenodd" d="M229.677 324.393C229.677 325.715 228.609 326.787 227.29 326.787C225.972 326.787 224.903 325.715 224.903 324.393C224.903 323.071 225.972 322 227.29 322C228.609 322 229.677 323.071 229.677 324.393Z" fill="#1B8BC8"/>
<path fill-rule="evenodd" clip-rule="evenodd" d="M174.774 337.557C174.774 338.879 173.706 339.951 172.386 339.951C171.069 339.951 170 338.879 170 337.557C170 336.236 171.069 335.164 172.386 335.164C173.706 335.164 174.774 336.236 174.774 337.557Z" fill="#1B8BC8"/>
<path fill-rule="evenodd" clip-rule="evenodd" d="M189.097 337.557C189.097 338.879 188.028 339.951 186.709 339.951C185.391 339.951 184.323 338.879 184.323 337.557C184.323 336.236 185.391 335.164 186.709 335.164C188.028 335.164 189.097 336.236 189.097 337.557Z" fill="#1B8BC8"/>
<path fill-rule="evenodd" clip-rule="evenodd" d="M202.226 337.557C202.226 338.879 201.157 339.951 199.839 339.951C198.52 339.951 197.452 338.879 197.452 337.557C197.452 336.236 198.52 335.164 199.839 335.164C201.157 335.164 202.226 336.236 202.226 337.557Z" fill="#1B8BC8"/>
<path fill-rule="evenodd" clip-rule="evenodd" d="M216.548 337.557C216.548 338.879 215.48 339.951 214.16 339.951C212.842 339.951 211.774 338.879 211.774 337.557C211.774 336.236 212.842 335.164 214.16 335.164C215.48 335.164 216.548 336.236 216.548 337.557Z" fill="#1B8BC8"/>
<path fill-rule="evenodd" clip-rule="evenodd" d="M229.677 337.557C229.677 338.879 228.609 339.951 227.29 339.951C225.972 339.951 224.903 338.879 224.903 337.557C224.903 336.236 225.972 335.164 227.29 335.164C228.609 335.164 229.677 336.236 229.677 337.557Z" fill="#1B8BC8"/>
<path fill-rule="evenodd" clip-rule="evenodd" d="M174.774 352.517C174.774 354.168 173.706 355.508 172.386 355.508C171.069 355.508 170 354.168 170 352.517C170 350.864 171.069 349.525 172.386 349.525C173.706 349.525 174.774 350.864 174.774 352.517Z" fill="#1B8BC8"/>
<path fill-rule="evenodd" clip-rule="evenodd" d="M189.097 352.517C189.097 354.168 188.028 355.508 186.709 355.508C185.391 355.508 184.323 354.168 184.323 352.517C184.323 350.864 185.391 349.525 186.709 349.525C188.028 349.525 189.097 350.864 189.097 352.517Z" fill="#1B8BC8"/>
<path fill-rule="evenodd" clip-rule="evenodd" d="M202.226 352.517C202.226 354.168 201.157 355.508 199.839 355.508C198.52 355.508 197.452 354.168 197.452 352.517C197.452 350.864 198.52 349.525 199.839 349.525C201.157 349.525 202.226 350.864 202.226 352.517Z" fill="#1B8BC8"/>
<path fill-rule="evenodd" clip-rule="evenodd" d="M216.548 352.517C216.548 354.168 215.48 355.508 214.16 355.508C212.842 355.508 211.774 354.168 211.774 352.517C211.774 350.864 212.842 349.525 214.16 349.525C215.48 349.525 216.548 350.864 216.548 352.517Z" fill="#1B8BC8"/>
<path fill-rule="evenodd" clip-rule="evenodd" d="M229.677 352.517C229.677 354.168 228.609 355.508 227.29 355.508C225.972 355.508 224.903 354.168 224.903 352.517C224.903 350.864 225.972 349.525 227.29 349.525C228.609 349.525 229.677 350.864 229.677 352.517Z" fill="#1B8BC8"/>
<path fill-rule="evenodd" clip-rule="evenodd" d="M174.774 365.68C174.774 367.332 173.706 368.672 172.386 368.672C171.069 368.672 170 367.332 170 365.68C170 364.028 171.069 362.688 172.386 362.688C173.706 362.688 174.774 364.028 174.774 365.68Z" fill="#1B8BC8"/>
<path fill-rule="evenodd" clip-rule="evenodd" d="M189.097 365.68C189.097 367.332 188.028 368.672 186.709 368.672C185.391 368.672 184.323 367.332 184.323 365.68C184.323 364.028 185.391 362.688 186.709 362.688C188.028 362.688 189.097 364.028 189.097 365.68Z" fill="#1B8BC8"/>
<path fill-rule="evenodd" clip-rule="evenodd" d="M202.226 365.68C202.226 367.332 201.157 368.672 199.839 368.672C198.52 368.672 197.452 367.332 197.452 365.68C197.452 364.028 198.52 362.688 199.839 362.688C201.157 362.688 202.226 364.028 202.226 365.68Z" fill="#1B8BC8"/>
<path fill-rule="evenodd" clip-rule="evenodd" d="M216.548 365.68C216.548 367.332 215.48 368.672 214.16 368.672C212.842 368.672 211.774 367.332 211.774 365.68C211.774 364.028 212.842 362.688 214.16 362.688C215.48 362.688 216.548 364.028 216.548 365.68Z" fill="#1B8BC8"/>
<path fill-rule="evenodd" clip-rule="evenodd" d="M229.677 365.68C229.677 367.332 228.609 368.672 227.29 368.672C225.972 368.672 224.903 367.332 224.903 365.68C224.903 364.028 225.972 362.688 227.29 362.688C228.609 362.688 229.677 364.028 229.677 365.68Z" fill="#1B8BC8"/>
<path fill-rule="evenodd" clip-rule="evenodd" d="M174.774 379.443C174.774 380.764 173.706 381.836 172.386 381.836C171.069 381.836 170 380.764 170 379.443C170 378.121 171.069 377.049 172.386 377.049C173.706 377.049 174.774 378.121 174.774 379.443Z" fill="#1B8BC8"/>
<path fill-rule="evenodd" clip-rule="evenodd" d="M189.097 379.443C189.097 380.764 188.028 381.836 186.709 381.836C185.391 381.836 184.323 380.764 184.323 379.443C184.323 378.121 185.391 377.049 186.709 377.049C188.028 377.049 189.097 378.121 189.097 379.443Z" fill="#1B8BC8"/>
<path fill-rule="evenodd" clip-rule="evenodd" d="M202.226 379.443C202.226 380.764 201.157 381.836 199.839 381.836C198.52 381.836 197.452 380.764 197.452 379.443C197.452 378.121 198.52 377.049 199.839 377.049C201.157 377.049 202.226 378.121 202.226 379.443Z" fill="#1B8BC8"/>
<path fill-rule="evenodd" clip-rule="evenodd" d="M216.548 379.443C216.548 380.764 215.48 381.836 214.16 381.836C212.842 381.836 211.774 380.764 211.774 379.443C211.774 378.121 212.842 377.049 214.16 377.049C215.48 377.049 216.548 378.121 216.548 379.443Z" fill="#1B8BC8"/>
<path fill-rule="evenodd" clip-rule="evenodd" d="M229.677 379.443C229.677 380.764 228.609 381.836 227.29 381.836C225.972 381.836 224.903 380.764 224.903 379.443C224.903 378.121 225.972 377.049 227.29 377.049C228.609 377.049 229.677 378.121 229.677 379.443Z" fill="#1B8BC8"/>
<path fill-rule="evenodd" clip-rule="evenodd" d="M174.774 392.607C174.774 393.929 173.706 395 172.386 395C171.069 395 170 393.929 170 392.607C170 391.285 171.069 390.213 172.386 390.213C173.706 390.213 174.774 391.285 174.774 392.607Z" fill="#1B8BC8"/>
<path fill-rule="evenodd" clip-rule="evenodd" d="M189.097 392.607C189.097 393.929 188.028 395 186.709 395C185.391 395 184.323 393.929 184.323 392.607C184.323 391.285 185.391 390.213 186.709 390.213C188.028 390.213 189.097 391.285 189.097 392.607Z" fill="#1B8BC8"/>
<path fill-rule="evenodd" clip-rule="evenodd" d="M202.226 392.607C202.226 393.929 201.157 395 199.839 395C198.52 395 197.452 393.929 197.452 392.607C197.452 391.285 198.52 390.213 199.839 390.213C201.157 390.213 202.226 391.285 202.226 392.607Z" fill="#1B8BC8"/>
<path fill-rule="evenodd" clip-rule="evenodd" d="M216.548 392.607C216.548 393.929 215.48 395 214.16 395C212.842 395 211.774 393.929 211.774 392.607C211.774 391.285 212.842 390.213 214.16 390.213C215.48 390.213 216.548 391.285 216.548 392.607Z" fill="#1B8BC8"/>
<path fill-rule="evenodd" clip-rule="evenodd" d="M229.677 392.607C229.677 393.929 228.609 395 227.29 395C225.972 395 224.903 393.929 224.903 392.607C224.903 391.285 225.972 390.213 227.29 390.213C228.609 390.213 229.677 391.285 229.677 392.607Z" fill="#1B8BC8"/>
<path fill-rule="evenodd" clip-rule="evenodd" d="M244 324.393C244 325.715 242.932 326.787 241.612 326.787C240.294 326.787 239.226 325.715 239.226 324.393C239.226 323.071 240.294 322 241.612 322C242.932 322 244 323.071 244 324.393Z" fill="#1B8BC8"/>
<path fill-rule="evenodd" clip-rule="evenodd" d="M244 337.557C244 338.879 242.932 339.951 241.612 339.951C240.294 339.951 239.226 338.879 239.226 337.557C239.226 336.236 240.294 335.164 241.612 335.164C242.932 335.164 244 336.236 244 337.557Z" fill="#1B8BC8"/>
<path fill-rule="evenodd" clip-rule="evenodd" d="M244 352.517C244 354.168 242.932 355.508 241.612 355.508C240.294 355.508 239.226 354.168 239.226 352.517C239.226 350.864 240.294 349.525 241.612 349.525C242.932 349.525 244 350.864 244 352.517Z" fill="#1B8BC8"/>
<path fill-rule="evenodd" clip-rule="evenodd" d="M244 365.68C244 367.332 242.932 368.672 241.612 368.672C240.294 368.672 239.226 367.332 239.226 365.68C239.226 364.028 240.294 362.688 241.612 362.688C242.932 362.688 244 364.028 244 365.68Z" fill="#1B8BC8"/>
<path fill-rule="evenodd" clip-rule="evenodd" d="M244 379.443C244 380.764 242.932 381.836 241.612 381.836C240.294 381.836 239.226 380.764 239.226 379.443C239.226 378.121 240.294 377.049 241.612 377.049C242.932 377.049 244 378.121 244 379.443Z" fill="#1B8BC8"/>
<path fill-rule="evenodd" clip-rule="evenodd" d="M244 392.607C244 393.929 242.932 395 241.612 395C240.294 395 239.226 393.929 239.226 392.607C239.226 391.285 240.294 390.213 241.612 390.213C242.932 390.213 244 391.285 244 392.607Z" fill="#1B8BC8"/>
<path fill-rule="evenodd" clip-rule="evenodd" d="M258.774 244.393C258.774 245.715 257.706 246.787 256.386 246.787C255.069 246.787 254 245.715 254 244.393C254 243.071 255.069 242 256.386 242C257.706 242 258.774 243.071 258.774 244.393Z" fill="#1B8BC8"/>
<path fill-rule="evenodd" clip-rule="evenodd" d="M273.097 244.393C273.097 245.715 272.028 246.787 270.709 246.787C269.391 246.787 268.323 245.715 268.323 244.393C268.323 243.071 269.391 242 270.709 242C272.028 242 273.097 243.071 273.097 244.393Z" fill="#1B8BC8"/>
<path fill-rule="evenodd" clip-rule="evenodd" d="M286.226 244.393C286.226 245.715 285.157 246.787 283.839 246.787C282.52 246.787 281.452 245.715 281.452 244.393C281.452 243.071 282.52 242 283.839 242C285.157 242 286.226 243.071 286.226 244.393Z" fill="#1B8BC8"/>
<path fill-rule="evenodd" clip-rule="evenodd" d="M300.548 244.393C300.548 245.715 299.48 246.787 298.16 246.787C296.842 246.787 295.774 245.715 295.774 244.393C295.774 243.071 296.842 242 298.16 242C299.48 242 300.548 243.071 300.548 244.393Z" fill="#1B8BC8"/>
<path fill-rule="evenodd" clip-rule="evenodd" d="M313.677 244.393C313.677 245.715 312.609 246.787 311.29 246.787C309.972 246.787 308.903 245.715 308.903 244.393C308.903 243.071 309.972 242 311.29 242C312.609 242 313.677 243.071 313.677 244.393Z" fill="#1B8BC8"/>
<path fill-rule="evenodd" clip-rule="evenodd" d="M258.774 257.557C258.774 258.879 257.706 259.951 256.386 259.951C255.069 259.951 254 258.879 254 257.557C254 256.236 255.069 255.164 256.386 255.164C257.706 255.164 258.774 256.236 258.774 257.557Z" fill="#1B8BC8"/>
<path fill-rule="evenodd" clip-rule="evenodd" d="M273.097 257.557C273.097 258.879 272.028 259.951 270.709 259.951C269.391 259.951 268.323 258.879 268.323 257.557C268.323 256.236 269.391 255.164 270.709 255.164C272.028 255.164 273.097 256.236 273.097 257.557Z" fill="#1B8BC8"/>
<path fill-rule="evenodd" clip-rule="evenodd" d="M286.226 257.557C286.226 258.879 285.157 259.951 283.839 259.951C282.52 259.951 281.452 258.879 281.452 257.557C281.452 256.236 282.52 255.164 283.839 255.164C285.157 255.164 286.226 256.236 286.226 257.557Z" fill="#1B8BC8"/>
<path fill-rule="evenodd" clip-rule="evenodd" d="M300.548 257.557C300.548 258.879 299.48 259.951 298.16 259.951C296.842 259.951 295.774 258.879 295.774 257.557C295.774 256.236 296.842 255.164 298.16 255.164C299.48 255.164 300.548 256.236 300.548 257.557Z" fill="#1B8BC8"/>
<path fill-rule="evenodd" clip-rule="evenodd" d="M313.677 257.557C313.677 258.879 312.609 259.951 311.29 259.951C309.972 259.951 308.903 258.879 308.903 257.557C308.903 256.236 309.972 255.164 311.29 255.164C312.609 255.164 313.677 256.236 313.677 257.557Z" fill="#1B8BC8"/>
<path fill-rule="evenodd" clip-rule="evenodd" d="M258.774 272.517C258.774 274.168 257.706 275.508 256.386 275.508C255.069 275.508 254 274.168 254 272.517C254 270.864 255.069 269.525 256.386 269.525C257.706 269.525 258.774 270.864 258.774 272.517Z" fill="#1B8BC8"/>
<path fill-rule="evenodd" clip-rule="evenodd" d="M273.097 272.517C273.097 274.168 272.028 275.508 270.709 275.508C269.391 275.508 268.323 274.168 268.323 272.517C268.323 270.864 269.391 269.525 270.709 269.525C272.028 269.525 273.097 270.864 273.097 272.517Z" fill="#1B8BC8"/>
<path fill-rule="evenodd" clip-rule="evenodd" d="M286.226 272.517C286.226 274.168 285.157 275.508 283.839 275.508C282.52 275.508 281.452 274.168 281.452 272.517C281.452 270.864 282.52 269.525 283.839 269.525C285.157 269.525 286.226 270.864 286.226 272.517Z" fill="#1B8BC8"/>
<path fill-rule="evenodd" clip-rule="evenodd" d="M300.548 272.517C300.548 274.168 299.48 275.508 298.16 275.508C296.842 275.508 295.774 274.168 295.774 272.517C295.774 270.864 296.842 269.525 298.16 269.525C299.48 269.525 300.548 270.864 300.548 272.517Z" fill="#1B8BC8"/>
<path fill-rule="evenodd" clip-rule="evenodd" d="M313.677 272.517C313.677 274.168 312.609 275.508 311.29 275.508C309.972 275.508 308.903 274.168 308.903 272.517C308.903 270.864 309.972 269.525 311.29 269.525C312.609 269.525 313.677 270.864 313.677 272.517Z" fill="#1B8BC8"/>
<path fill-rule="evenodd" clip-rule="evenodd" d="M258.774 285.68C258.774 287.332 257.706 288.672 256.386 288.672C255.069 288.672 254 287.332 254 285.68C254 284.028 255.069 282.688 256.386 282.688C257.706 282.688 258.774 284.028 258.774 285.68Z" fill="#1B8BC8"/>
<path fill-rule="evenodd" clip-rule="evenodd" d="M273.097 285.68C273.097 287.332 272.028 288.672 270.709 288.672C269.391 288.672 268.323 287.332 268.323 285.68C268.323 284.028 269.391 282.688 270.709 282.688C272.028 282.688 273.097 284.028 273.097 285.68Z" fill="#1B8BC8"/>
<path fill-rule="evenodd" clip-rule="evenodd" d="M286.226 285.68C286.226 287.332 285.157 288.672 283.839 288.672C282.52 288.672 281.452 287.332 281.452 285.68C281.452 284.028 282.52 282.688 283.839 282.688C285.157 282.688 286.226 284.028 286.226 285.68Z" fill="#1B8BC8"/>
<path fill-rule="evenodd" clip-rule="evenodd" d="M300.548 285.68C300.548 287.332 299.48 288.672 298.16 288.672C296.842 288.672 295.774 287.332 295.774 285.68C295.774 284.028 296.842 282.688 298.16 282.688C299.48 282.688 300.548 284.028 300.548 285.68Z" fill="#1B8BC8"/>
<path fill-rule="evenodd" clip-rule="evenodd" d="M313.677 285.68C313.677 287.332 312.609 288.672 311.29 288.672C309.972 288.672 308.903 287.332 308.903 285.68C308.903 284.028 309.972 282.688 311.29 282.688C312.609 282.688 313.677 284.028 313.677 285.68Z" fill="#1B8BC8"/>
<path fill-rule="evenodd" clip-rule="evenodd" d="M258.774 299.443C258.774 300.764 257.706 301.836 256.386 301.836C255.069 301.836 254 300.764 254 299.443C254 298.121 255.069 297.049 256.386 297.049C257.706 297.049 258.774 298.121 258.774 299.443Z" fill="#1B8BC8"/>
<path fill-rule="evenodd" clip-rule="evenodd" d="M273.097 299.443C273.097 300.764 272.028 301.836 270.709 301.836C269.391 301.836 268.323 300.764 268.323 299.443C268.323 298.121 269.391 297.049 270.709 297.049C272.028 297.049 273.097 298.121 273.097 299.443Z" fill="#1B8BC8"/>
<path fill-rule="evenodd" clip-rule="evenodd" d="M286.226 299.443C286.226 300.764 285.157 301.836 283.839 301.836C282.52 301.836 281.452 300.764 281.452 299.443C281.452 298.121 282.52 297.049 283.839 297.049C285.157 297.049 286.226 298.121 286.226 299.443Z" fill="#1B8BC8"/>
<path fill-rule="evenodd" clip-rule="evenodd" d="M300.548 299.443C300.548 300.764 299.48 301.836 298.16 301.836C296.842 301.836 295.774 300.764 295.774 299.443C295.774 298.121 296.842 297.049 298.16 297.049C299.48 297.049 300.548 298.121 300.548 299.443Z" fill="#1B8BC8"/>
<path fill-rule="evenodd" clip-rule="evenodd" d="M313.677 299.443C313.677 300.764 312.609 301.836 311.29 301.836C309.972 301.836 308.903 300.764 308.903 299.443C308.903 298.121 309.972 297.049 311.29 297.049C312.609 297.049 313.677 298.121 313.677 299.443Z" fill="#1B8BC8"/>
<path fill-rule="evenodd" clip-rule="evenodd" d="M258.774 312.607C258.774 313.929 257.706 315 256.386 315C255.069 315 254 313.929 254 312.607C254 311.285 255.069 310.213 256.386 310.213C257.706 310.213 258.774 311.285 258.774 312.607Z" fill="#1B8BC8"/>
<path fill-rule="evenodd" clip-rule="evenodd" d="M273.097 312.607C273.097 313.929 272.028 315 270.709 315C269.391 315 268.323 313.929 268.323 312.607C268.323 311.285 269.391 310.213 270.709 310.213C272.028 310.213 273.097 311.285 273.097 312.607Z" fill="#1B8BC8"/>
<path fill-rule="evenodd" clip-rule="evenodd" d="M286.226 312.607C286.226 313.929 285.157 315 283.839 315C282.52 315 281.452 313.929 281.452 312.607C281.452 311.285 282.52 310.213 283.839 310.213C285.157 310.213 286.226 311.285 286.226 312.607Z" fill="#1B8BC8"/>
<path fill-rule="evenodd" clip-rule="evenodd" d="M300.548 312.607C300.548 313.929 299.48 315 298.16 315C296.842 315 295.774 313.929 295.774 312.607C295.774 311.285 296.842 310.213 298.16 310.213C299.48 310.213 300.548 311.285 300.548 312.607Z" fill="#1B8BC8"/>
<path fill-rule="evenodd" clip-rule="evenodd" d="M313.677 312.607C313.677 313.929 312.609 315 311.29 315C309.972 315 308.903 313.929 308.903 312.607C308.903 311.285 309.972 310.213 311.29 310.213C312.609 310.213 313.677 311.285 313.677 312.607Z" fill="#1B8BC8"/>
<path fill-rule="evenodd" clip-rule="evenodd" d="M328 244.393C328 245.715 326.932 246.787 325.612 246.787C324.294 246.787 323.226 245.715 323.226 244.393C323.226 243.071 324.294 242 325.612 242C326.932 242 328 243.071 328 244.393Z" fill="#1B8BC8"/>
<path fill-rule="evenodd" clip-rule="evenodd" d="M328 257.557C328 258.879 326.932 259.951 325.612 259.951C324.294 259.951 323.226 258.879 323.226 257.557C323.226 256.236 324.294 255.164 325.612 255.164C326.932 255.164 328 256.236 328 257.557Z" fill="#1B8BC8"/>
<path fill-rule="evenodd" clip-rule="evenodd" d="M328 272.517C328 274.168 326.932 275.508 325.612 275.508C324.294 275.508 323.226 274.168 323.226 272.517C323.226 270.864 324.294 269.525 325.612 269.525C326.932 269.525 328 270.864 328 272.517Z" fill="#1B8BC8"/>
<path fill-rule="evenodd" clip-rule="evenodd" d="M328 285.68C328 287.332 326.932 288.672 325.612 288.672C324.294 288.672 323.226 287.332 323.226 285.68C323.226 284.028 324.294 282.688 325.612 282.688C326.932 282.688 328 284.028 328 285.68Z" fill="#1B8BC8"/>
<path fill-rule="evenodd" clip-rule="evenodd" d="M328 299.443C328 300.764 326.932 301.836 325.612 301.836C324.294 301.836 323.226 300.764 323.226 299.443C323.226 298.121 324.294 297.049 325.612 297.049C326.932 297.049 328 298.121 328 299.443Z" fill="#1B8BC8"/>
<path fill-rule="evenodd" clip-rule="evenodd" d="M328 312.607C328 313.929 326.932 315 325.612 315C324.294 315 323.226 313.929 323.226 312.607C323.226 311.285 324.294 310.213 325.612 310.213C326.932 310.213 328 311.285 328 312.607Z" fill="#1B8BC8"/>
<path fill-rule="evenodd" clip-rule="evenodd" d="M258.774 324.393C258.774 325.715 257.706 326.787 256.386 326.787C255.069 326.787 254 325.715 254 324.393C254 323.071 255.069 322 256.386 322C257.706 322 258.774 323.071 258.774 324.393Z" fill="#1B8BC8"/>
<path fill-rule="evenodd" clip-rule="evenodd" d="M273.097 324.393C273.097 325.715 272.028 326.787 270.709 326.787C269.391 326.787 268.323 325.715 268.323 324.393C268.323 323.071 269.391 322 270.709 322C272.028 322 273.097 323.071 273.097 324.393Z" fill="#1B8BC8"/>
<path fill-rule="evenodd" clip-rule="evenodd" d="M286.226 324.393C286.226 325.715 285.157 326.787 283.839 326.787C282.52 326.787 281.452 325.715 281.452 324.393C281.452 323.071 282.52 322 283.839 322C285.157 322 286.226 323.071 286.226 324.393Z" fill="#1B8BC8"/>
<path fill-rule="evenodd" clip-rule="evenodd" d="M300.548 324.393C300.548 325.715 299.48 326.787 298.16 326.787C296.842 326.787 295.774 325.715 295.774 324.393C295.774 323.071 296.842 322 298.16 322C299.48 322 300.548 323.071 300.548 324.393Z" fill="#1B8BC8"/>
<path fill-rule="evenodd" clip-rule="evenodd" d="M313.677 324.393C313.677 325.715 312.609 326.787 311.29 326.787C309.972 326.787 308.903 325.715 308.903 324.393C308.903 323.071 309.972 322 311.29 322C312.609 322 313.677 323.071 313.677 324.393Z" fill="#1B8BC8"/>
<path fill-rule="evenodd" clip-rule="evenodd" d="M258.774 337.557C258.774 338.879 257.706 339.951 256.386 339.951C255.069 339.951 254 338.879 254 337.557C254 336.236 255.069 335.164 256.386 335.164C257.706 335.164 258.774 336.236 258.774 337.557Z" fill="#1B8BC8"/>
<path fill-rule="evenodd" clip-rule="evenodd" d="M273.097 337.557C273.097 338.879 272.028 339.951 270.709 339.951C269.391 339.951 268.323 338.879 268.323 337.557C268.323 336.236 269.391 335.164 270.709 335.164C272.028 335.164 273.097 336.236 273.097 337.557Z" fill="#1B8BC8"/>
<path fill-rule="evenodd" clip-rule="evenodd" d="M286.226 337.557C286.226 338.879 285.157 339.951 283.839 339.951C282.52 339.951 281.452 338.879 281.452 337.557C281.452 336.236 282.52 335.164 283.839 335.164C285.157 335.164 286.226 336.236 286.226 337.557Z" fill="#1B8BC8"/>
<path fill-rule="evenodd" clip-rule="evenodd" d="M300.548 337.557C300.548 338.879 299.48 339.951 298.16 339.951C296.842 339.951 295.774 338.879 295.774 337.557C295.774 336.236 296.842 335.164 298.16 335.164C299.48 335.164 300.548 336.236 300.548 337.557Z" fill="#1B8BC8"/>
<path fill-rule="evenodd" clip-rule="evenodd" d="M313.677 337.557C313.677 338.879 312.609 339.951 311.29 339.951C309.972 339.951 308.903 338.879 308.903 337.557C308.903 336.236 309.972 335.164 311.29 335.164C312.609 335.164 313.677 336.236 313.677 337.557Z" fill="#1B8BC8"/>
<path fill-rule="evenodd" clip-rule="evenodd" d="M258.774 352.517C258.774 354.168 257.706 355.508 256.386 355.508C255.069 355.508 254 354.168 254 352.517C254 350.864 255.069 349.525 256.386 349.525C257.706 349.525 258.774 350.864 258.774 352.517Z" fill="#1B8BC8"/>
<path fill-rule="evenodd" clip-rule="evenodd" d="M273.097 352.517C273.097 354.168 272.028 355.508 270.709 355.508C269.391 355.508 268.323 354.168 268.323 352.517C268.323 350.864 269.391 349.525 270.709 349.525C272.028 349.525 273.097 350.864 273.097 352.517Z" fill="#1B8BC8"/>
<path fill-rule="evenodd" clip-rule="evenodd" d="M286.226 352.517C286.226 354.168 285.157 355.508 283.839 355.508C282.52 355.508 281.452 354.168 281.452 352.517C281.452 350.864 282.52 349.525 283.839 349.525C285.157 349.525 286.226 350.864 286.226 352.517Z" fill="#1B8BC8"/>
<path fill-rule="evenodd" clip-rule="evenodd" d="M300.548 352.517C300.548 354.168 299.48 355.508 298.16 355.508C296.842 355.508 295.774 354.168 295.774 352.517C295.774 350.864 296.842 349.525 298.16 349.525C299.48 349.525 300.548 350.864 300.548 352.517Z" fill="#1B8BC8"/>
<path fill-rule="evenodd" clip-rule="evenodd" d="M313.677 352.517C313.677 354.168 312.609 355.508 311.29 355.508C309.972 355.508 308.903 354.168 308.903 352.517C308.903 350.864 309.972 349.525 311.29 349.525C312.609 349.525 313.677 350.864 313.677 352.517Z" fill="#1B8BC8"/>
<path fill-rule="evenodd" clip-rule="evenodd" d="M258.774 365.68C258.774 367.332 257.706 368.672 256.386 368.672C255.069 368.672 254 367.332 254 365.68C254 364.028 255.069 362.688 256.386 362.688C257.706 362.688 258.774 364.028 258.774 365.68Z" fill="#1B8BC8"/>
<path fill-rule="evenodd" clip-rule="evenodd" d="M273.097 365.68C273.097 367.332 272.028 368.672 270.709 368.672C269.391 368.672 268.323 367.332 268.323 365.68C268.323 364.028 269.391 362.688 270.709 362.688C272.028 362.688 273.097 364.028 273.097 365.68Z" fill="#1B8BC8"/>
<path fill-rule="evenodd" clip-rule="evenodd" d="M286.226 365.68C286.226 367.332 285.157 368.672 283.839 368.672C282.52 368.672 281.452 367.332 281.452 365.68C281.452 364.028 282.52 362.688 283.839 362.688C285.157 362.688 286.226 364.028 286.226 365.68Z" fill="#1B8BC8"/>
<path fill-rule="evenodd" clip-rule="evenodd" d="M300.548 365.68C300.548 367.332 299.48 368.672 298.16 368.672C296.842 368.672 295.774 367.332 295.774 365.68C295.774 364.028 296.842 362.688 298.16 362.688C299.48 362.688 300.548 364.028 300.548 365.68Z" fill="#1B8BC8"/>
<path fill-rule="evenodd" clip-rule="evenodd" d="M313.677 365.68C313.677 367.332 312.609 368.672 311.29 368.672C309.972 368.672 308.903 367.332 308.903 365.68C308.903 364.028 309.972 362.688 311.29 362.688C312.609 362.688 313.677 364.028 313.677 365.68Z" fill="#1B8BC8"/>
<path fill-rule="evenodd" clip-rule="evenodd" d="M258.774 379.443C258.774 380.764 257.706 381.836 256.386 381.836C255.069 381.836 254 380.764 254 379.443C254 378.121 255.069 377.049 256.386 377.049C257.706 377.049 258.774 378.121 258.774 379.443Z" fill="#1B8BC8"/>
<path fill-rule="evenodd" clip-rule="evenodd" d="M273.097 379.443C273.097 380.764 272.028 381.836 270.709 381.836C269.391 381.836 268.323 380.764 268.323 379.443C268.323 378.121 269.391 377.049 270.709 377.049C272.028 377.049 273.097 378.121 273.097 379.443Z" fill="#1B8BC8"/>
<path fill-rule="evenodd" clip-rule="evenodd" d="M286.226 379.443C286.226 380.764 285.157 381.836 283.839 381.836C282.52 381.836 281.452 380.764 281.452 379.443C281.452 378.121 282.52 377.049 283.839 377.049C285.157 377.049 286.226 378.121 286.226 379.443Z" fill="#1B8BC8"/>
<path fill-rule="evenodd" clip-rule="evenodd" d="M300.548 379.443C300.548 380.764 299.48 381.836 298.16 381.836C296.842 381.836 295.774 380.764 295.774 379.443C295.774 378.121 296.842 377.049 298.16 377.049C299.48 377.049 300.548 378.121 300.548 379.443Z" fill="#1B8BC8"/>
<path fill-rule="evenodd" clip-rule="evenodd" d="M313.677 379.443C313.677 380.764 312.609 381.836 311.29 381.836C309.972 381.836 308.903 380.764 308.903 379.443C308.903 378.121 309.972 377.049 311.29 377.049C312.609 377.049 313.677 378.121 313.677 379.443Z" fill="#1B8BC8"/>
<path fill-rule="evenodd" clip-rule="evenodd" d="M258.774 392.607C258.774 393.929 257.706 395 256.386 395C255.069 395 254 393.929 254 392.607C254 391.285 255.069 390.213 256.386 390.213C257.706 390.213 258.774 391.285 258.774 392.607Z" fill="#1B8BC8"/>
<path fill-rule="evenodd" clip-rule="evenodd" d="M273.097 392.607C273.097 393.929 272.028 395 270.709 395C269.391 395 268.323 393.929 268.323 392.607C268.323 391.285 269.391 390.213 270.709 390.213C272.028 390.213 273.097 391.285 273.097 392.607Z" fill="#1B8BC8"/>
<path fill-rule="evenodd" clip-rule="evenodd" d="M286.226 392.607C286.226 393.929 285.157 395 283.839 395C282.52 395 281.452 393.929 281.452 392.607C281.452 391.285 282.52 390.213 283.839 390.213C285.157 390.213 286.226 391.285 286.226 392.607Z" fill="#1B8BC8"/>
<path fill-rule="evenodd" clip-rule="evenodd" d="M300.548 392.607C300.548 393.929 299.48 395 298.16 395C296.842 395 295.774 393.929 295.774 392.607C295.774 391.285 296.842 390.213 298.16 390.213C299.48 390.213 300.548 391.285 300.548 392.607Z" fill="#1B8BC8"/>
<path fill-rule="evenodd" clip-rule="evenodd" d="M313.677 392.607C313.677 393.929 312.609 395 311.29 395C309.972 395 308.903 393.929 308.903 392.607C308.903 391.285 309.972 390.213 311.29 390.213C312.609 390.213 313.677 391.285 313.677 392.607Z" fill="#1B8BC8"/>
<path fill-rule="evenodd" clip-rule="evenodd" d="M328 324.393C328 325.715 326.932 326.787 325.612 326.787C324.294 326.787 323.226 325.715 323.226 324.393C323.226 323.071 324.294 322 325.612 322C326.932 322 328 323.071 328 324.393Z" fill="#1B8BC8"/>
<path fill-rule="evenodd" clip-rule="evenodd" d="M328 337.557C328 338.879 326.932 339.951 325.612 339.951C324.294 339.951 323.226 338.879 323.226 337.557C323.226 336.236 324.294 335.164 325.612 335.164C326.932 335.164 328 336.236 328 337.557Z" fill="#1B8BC8"/>
<path fill-rule="evenodd" clip-rule="evenodd" d="M328 352.517C328 354.168 326.932 355.508 325.612 355.508C324.294 355.508 323.226 354.168 323.226 352.517C323.226 350.864 324.294 349.525 325.612 349.525C326.932 349.525 328 350.864 328 352.517Z" fill="#1B8BC8"/>
<path fill-rule="evenodd" clip-rule="evenodd" d="M328 365.68C328 367.332 326.932 368.672 325.612 368.672C324.294 368.672 323.226 367.332 323.226 365.68C323.226 364.028 324.294 362.688 325.612 362.688C326.932 362.688 328 364.028 328 365.68Z" fill="#1B8BC8"/>
<path fill-rule="evenodd" clip-rule="evenodd" d="M328 379.443C328 380.764 326.932 381.836 325.612 381.836C324.294 381.836 323.226 380.764 323.226 379.443C323.226 378.121 324.294 377.049 325.612 377.049C326.932 377.049 328 378.121 328 379.443Z" fill="#1B8BC8"/>
<path fill-rule="evenodd" clip-rule="evenodd" d="M328 392.607C328 393.929 326.932 395 325.612 395C324.294 395 323.226 393.929 323.226 392.607C323.226 391.285 324.294 390.213 325.612 390.213C326.932 390.213 328 391.285 328 392.607Z" fill="#1B8BC8"/>
</g>
<path opacity="0.0382022" d="M1014 403.816C1016.98 400.715 1070.89 321.578 1194.07 323.855C1317.25 326.133 1361.93 226 1361.93 226" stroke="white" stroke-width="6" stroke-linecap="round"/>
<path opacity="0.100656" d="M3.21875 65.0742C3.21875 65.0742 83.5 42.8828 101.605 94.9101C119.711 146.937 167.238 119.098 195.742 126.367C224.246 133.637 227.992 166.234 230.844 183.832" stroke="white" stroke-width="5" stroke-linecap="round"/>
<path opacity="0.0407599" fill-rule="evenodd" clip-rule="evenodd" d="M973.5 196C980.956 196 987 189.956 987 182.5C987 175.044 980.956 169 973.5 169C966.044 169 960 175.044 960 182.5C960 189.956 966.044 196 973.5 196Z" stroke="white" stroke-width="5"/>
<rect opacity="0.122791" x="365.05" y="3.06186" width="27" height="27" transform="rotate(15 365.05 3.06186)" stroke="white" stroke-width="5"/>
</svg>
